<?xml version="1.0" encoding="UTF-8"?> <!-- Generator: Adobe Illustrator 25.2.0, SVG Export Plug-In . SVG Version: 6.00 Build 0) --> <svg xmlns="http://www.w3.org/2000/svg" xmlns:xlink="http://www.w3.org/1999/xlink" version="1.1" id="Layer_1" x="0px" y="0px" viewBox="0 0 225 74" style="enable-background:new 0 0 225 74;" xml:space="preserve"> <style type="text/css"> .st0{fill:url(#SVGID_1_);} </style> <linearGradient id="SVGID_1_" gradientUnits="userSpaceOnUse" x1="67.7374" y1="-32.4991" x2="143.3144" y2="98.4042"> <stop offset="0" style="stop-color:#000000"></stop> <stop offset="0" style="stop-color:#30C9CD"></stop> <stop offset="1" style="stop-color:#4329E3"></stop> </linearGradient> <path class="st0" d="M57.63,0.3H15.09C6.51,0.3-0.44,7.25-0.44,15.83v52.38c0,2.32,1.28,4.43,3.34,5.5c0.9,0.47,1.89,0.7,2.86,0.7 c1.09,0,2.17-0.29,3.13-0.86l16.28-8.22h32.45c8.58,0,15.53-6.95,15.53-15.53V15.83C73.16,7.25,66.2,0.3,57.63,0.3z M61.35,50.69 h-8.34V33.4c0-4.54-2.24-6.84-6.28-6.84c-4.6,0-7.59,3.11-7.59,7.59v16.55H30.8V19.4h6.53l1.12,4.35c1.99-3.17,5.91-5.04,10.82-5.04 c7.34,0,12.07,4.98,12.07,12.94V50.69z M95.5,18.78c-9.89,0-17.11,6.91-17.11,16.3c0,9.46,7.09,16.24,17.11,16.24 c9.83,0,17.05-6.91,17.05-16.24C112.54,25.43,105.51,18.78,95.5,18.78z M95.5,43.66c-5.1,0-8.58-3.55-8.58-8.59 c0-5.1,3.55-8.65,8.58-8.65c5.16,0,8.58,3.42,8.58,8.65C104.08,40.05,100.54,43.66,95.5,43.66z M138.82,42.19l2.51,7.15 c0,0-3.16,1.93-8.6,1.93c-7.82,0-11.58-3.98-11.58-12.19V26.46h-6v-6.4c4.69-0.32,7.12-3.52,7.44-9.6h6.56v9h11v7h-11v12.07 c0,3.92,1.19,5.23,4.6,5.29C136.85,43.87,138.82,42.19,138.82,42.19z M147.15,19.46h8v31h-8V19.46z M156.39,9.57 c0,2.86-2.18,4.98-5.1,4.98c-2.92,0-5.04-2.05-5.04-4.98s2.11-4.98,5.04-4.98C154.27,4.59,156.39,6.65,156.39,9.57z M175.15,16.35 v3.11h11v7h-11v24h-8v-24h-6v-7h6V16.1c0-7.65,4.42-12.32,11.82-12.32c5.55,0,8.72,2.92,8.72,2.92L185,13.11c0,0-1.97-2.05-4.9-2.05 C176.88,11.06,175.15,12.92,175.15,16.35z M225.01,19.46l-15.93,36.89c-2.67,6.22-5.72,8.65-11.57,8.65c-4.48,0-7.09-1.87-7.09-1.87 l2.8-7.09c0,0,1.62,1.18,3.67,1.18c1.93,0,3.17-0.75,3.98-2.92l1.93-4.35l-13.5-30.48h9.58l7.96,20.22l0.5,3.36l0.5-3.36l7.9-20.22 H225.01z"></path> </svg> 