<?xml version="1.0" encoding="utf-8"?>
<!-- Generator: Adobe Illustrator 25.2.1, SVG Export Plug-In . SVG Version: 6.00 Build 0)  -->
<svg version="1.1" id="Layer_1" xmlns="http://www.w3.org/2000/svg" xmlns:xlink="http://www.w3.org/1999/xlink" x="0px" y="0px"
	 viewBox="0 0 120 120" style="enable-background:new 0 0 120 120;" xml:space="preserve">
<style type="text/css">
	.st0{fill:url(#SVGID_1_);}
</style>
<linearGradient id="SVGID_1_" gradientUnits="userSpaceOnUse" x1="24.1972" y1="28.2468" x2="88.9083" y2="92.9579">
	<stop  offset="0" style="stop-color:#000000"/>
	<stop  offset="0" style="stop-color:#30C9CD"/>
	<stop  offset="1" style="stop-color:#4329E3"/>
</linearGradient>
<path class="st0" d="M83.31,21.75H37.6c-9.22,0-16.69,7.47-16.69,16.69v56.28c0,2.49,1.38,4.76,3.59,5.91
	c0.97,0.51,2.03,0.76,3.07,0.76c1.17,0,2.33-0.31,3.37-0.92l17.49-8.83h34.87c9.22,0,16.69-7.47,16.69-16.69V38.44
	C100,29.23,92.53,21.75,83.31,21.75z M87.31,75.9h-8.96V57.32c0-4.88-2.41-7.35-6.75-7.35c-4.95,0-8.16,3.34-8.16,8.16V75.9h-8.96
	V42.28h7.02l1.2,4.68c2.14-3.41,6.35-5.41,11.63-5.41c7.89,0,12.97,5.35,12.97,13.9V75.9z"/>
</svg>
